<svg width="24" height="24" viewBox="0 0 24 24" fill="none" xmlns="http://www.w3.org/2000/svg">
<g clip-path="url(#clip0_473_68)">
<path d="M12.7071 3.63599C12.5196 3.44852 12.2653 3.3432 12.0001 3.3432C11.7349 3.3432 11.4806 3.44852 11.2931 3.63599L5.6361 9.29299C5.54059 9.38523 5.46441 9.49558 5.412 9.61758C5.35959 9.73959 5.332 9.87081 5.33085 10.0036C5.32969 10.1364 5.355 10.268 5.40528 10.3909C5.45556 10.5138 5.52981 10.6255 5.6237 10.7194C5.7176 10.8133 5.82925 10.8875 5.95214 10.9378C6.07504 10.9881 6.20672 11.0134 6.3395 11.0122C6.47228 11.0111 6.6035 10.9835 6.7255 10.9311C6.84751 10.8787 6.95785 10.8025 7.0501 10.707L11.0001 6.75699V20C11.0001 20.2652 11.1055 20.5196 11.293 20.7071C11.4805 20.8946 11.7349 21 12.0001 21C12.2653 21 12.5197 20.8946 12.7072 20.7071C12.8947 20.5196 13.0001 20.2652 13.0001 20V6.75699L16.9501 10.707C17.1387 10.8891 17.3913 10.9899 17.6535 10.9877C17.9157 10.9854 18.1665 10.8802 18.3519 10.6948C18.5373 10.5094 18.6425 10.2586 18.6448 9.99639C18.6471 9.73419 18.5463 9.48159 18.3641 9.29299L12.7071 3.63599Z" fill="white"/>
</g>
<defs>
<clipPath id="clip0_473_68">
<rect width="24" height="24" fill="white"/>
</clipPath>
</defs>
</svg>
