<svg width="31" height="30" viewBox="0 0 31 30" fill="none" xmlns="http://www.w3.org/2000/svg">
<path d="M15.5 26.25C17.7992 26.25 20.0468 25.5902 21.9585 24.354C23.8702 23.1179 25.3602 21.3609 26.2401 19.3052C27.12 17.2495 27.3502 14.9875 26.9016 12.8052C26.4531 10.6229 25.3459 8.61839 23.7201 7.04505C22.0943 5.47171 20.023 4.40025 17.7679 3.96616C15.5129 3.53208 13.1755 3.75487 11.0513 4.60635C8.92711 5.45784 7.11154 6.89978 5.83417 8.74983C4.55679 10.5999 3.875 12.775 3.875 15C3.875 16.86 4.34 18.6138 5.16667 20.1588L3.875 26.25L10.1693 25C11.7658 25.8 13.5793 26.25 15.5 26.25Z" stroke="#9B9494" stroke-width="2" stroke-linecap="round" stroke-linejoin="round"/>
</svg>
