<svg width="20" height="16" viewBox="0 0 20 16" fill="none" xmlns="http://www.w3.org/2000/svg">
<path d="M10 0.5C12.4763 0.5 14.5888 1.74 16.1663 3.0975C17.7537 4.46125 18.9 6.02875 19.4625 6.87625C19.6845 7.20899 19.8029 7.60002 19.8029 8C19.8029 8.39998 19.6845 8.79101 19.4625 9.12375C18.9 9.97125 17.7537 11.5387 16.1663 12.9025C14.5875 14.26 12.4763 15.5 10 15.5C7.52375 15.5 5.41125 14.26 3.83375 12.9025C2.24625 11.5375 1.1 9.97 0.537502 9.1225C0.315536 8.78976 0.197083 8.39873 0.197083 7.99875C0.197083 7.59877 0.315536 7.20774 0.537502 6.875C1.1 6.02875 2.24625 4.46125 3.83375 3.0975C5.4125 1.74 7.52375 0.5 10 0.5ZM2.09875 7.915C2.08155 7.94001 2.07234 7.96965 2.07234 8C2.07234 8.03035 2.08155 8.05999 2.09875 8.085C2.6125 8.8625 3.65 10.2725 5.05625 11.4812C6.47 12.6975 8.15875 13.625 10 13.625C11.8413 13.625 13.5313 12.6975 14.9438 11.4812C16.3488 10.2725 17.3863 8.86125 17.9013 8.085C17.9185 8.05999 17.9277 8.03035 17.9277 8C17.9277 7.96965 17.9185 7.94001 17.9013 7.915C17.3863 7.13875 16.3488 5.7275 14.9438 4.51875C13.53 3.3025 11.8413 2.375 10 2.375C8.15875 2.375 6.46875 3.3025 5.05625 4.51875C3.65125 5.7275 2.61375 7.13875 2.09875 7.915ZM10 10.5C9.66708 10.5075 9.336 10.4485 9.02622 10.3263C8.71644 10.2041 8.43418 10.0213 8.19604 9.7885C7.95789 9.55573 7.76864 9.27773 7.63941 8.97082C7.51018 8.66391 7.44357 8.33427 7.44348 8.00126C7.4434 7.66825 7.50985 7.33859 7.63892 7.03161C7.768 6.72464 7.95711 6.44654 8.19514 6.21366C8.43317 5.98077 8.71533 5.79779 9.02506 5.67545C9.33478 5.55311 9.66582 5.49389 9.99875 5.50125C10.652 5.51569 11.2735 5.78528 11.7305 6.2523C12.1874 6.71932 12.4433 7.34665 12.4435 8.00001C12.4436 8.65338 12.188 9.28084 11.7313 9.74809C11.2747 10.2153 10.6532 10.4852 10 10.5Z" fill="#29B612"/>
</svg>
