<svg width="20" height="20" viewBox="0 0 20 20" fill="none" xmlns="http://www.w3.org/2000/svg">
<path d="M10.9976 2.43959C10.7162 2.20928 10.3637 2.08345 10.0001 2.08345C9.63644 2.08345 9.284 2.20928 9.00258 2.43959L3.513 6.91542C3.32621 7.06857 3.17581 7.26133 3.07269 7.47975C2.96956 7.69817 2.9163 7.9368 2.91675 8.17834V16.2971C2.91675 17.1917 3.6305 17.9167 4.5105 17.9167H6.323C7.20342 17.9167 7.91675 17.1917 7.91675 16.2971V12.7083C7.91675 12.4321 8.0265 12.1671 8.22185 11.9718C8.4172 11.7764 8.68215 11.6667 8.95842 11.6667H11.0418C11.318 11.6667 11.583 11.7764 11.7783 11.9718C11.9737 12.1671 12.0834 12.4321 12.0834 12.7083V16.2971C12.0834 17.1917 12.7968 17.9167 13.6772 17.9167H15.4897C16.3701 17.9167 17.0834 17.1917 17.0834 16.2971V8.17834C17.0839 7.9368 17.0306 7.69817 16.9275 7.47975C16.8244 7.26133 16.674 7.06857 16.4872 6.91542L10.9976 2.43959Z" fill="#29B612"/>
</svg>
