<svg width="20" height="20" viewBox="0 0 20 20" fill="none" xmlns="http://www.w3.org/2000/svg">
<path d="M4.58341 13.3333V6.66666C4.58341 6.00362 4.32002 5.36774 3.85118 4.8989C3.38234 4.43006 2.74646 4.16666 2.08341 4.16666C1.97291 4.16666 1.86693 4.21056 1.78879 4.2887C1.71065 4.36684 1.66675 4.47282 1.66675 4.58333V15.4167C1.66675 15.5272 1.71065 15.6332 1.78879 15.7113C1.86693 15.7894 1.97291 15.8333 2.08341 15.8333C2.74646 15.8333 3.38234 15.5699 3.85118 15.1011C4.32002 14.6323 4.58341 13.9964 4.58341 13.3333ZM10.4167 4.16666C11.9884 4.16666 12.7734 4.16666 13.2617 4.655C13.7501 5.14333 13.7501 5.92833 13.7501 7.5V12.5C13.7501 14.0717 13.7501 14.8567 13.2617 15.345C12.7734 15.8333 11.9884 15.8333 10.4167 15.8333H9.58341C8.01175 15.8333 7.22675 15.8333 6.73841 15.345C6.25008 14.8567 6.25008 14.0717 6.25008 12.5V7.5C6.25008 5.92833 6.25008 5.14333 6.73841 4.655C7.22675 4.16666 8.01175 4.16666 9.58341 4.16666H10.4167ZM15.4167 6.66666V13.3333C15.4167 13.9964 15.6801 14.6323 16.149 15.1011C16.6178 15.5699 17.2537 15.8333 17.9167 15.8333C18.0273 15.8333 18.1332 15.7894 18.2114 15.7113C18.2895 15.6332 18.3334 15.5272 18.3334 15.4167V4.58333C18.3334 4.47282 18.2895 4.36684 18.2114 4.2887C18.1332 4.21056 18.0273 4.16666 17.9167 4.16666C17.2537 4.16666 16.6178 4.43006 16.149 4.8989C15.6801 5.36774 15.4167 6.00362 15.4167 6.66666Z" fill="white"/>
</svg>
