<svg width="20" height="20" viewBox="0 0 20 20" fill="none" xmlns="http://www.w3.org/2000/svg">
<path d="M10.9975 2.43959C10.7161 2.20928 10.3637 2.08345 10 2.08345C9.63638 2.08345 9.28394 2.20928 9.00252 2.43959L3.51294 6.91542C3.32615 7.06857 3.17575 7.26133 3.07262 7.47975C2.9695 7.69818 2.91624 7.9368 2.91669 8.17834V16.2971C2.91669 17.1917 3.63044 17.9167 4.51044 17.9167H6.32294C7.20336 17.9167 7.91669 17.1917 7.91669 16.2971V12.7083C7.91669 12.4321 8.02644 12.1671 8.22179 11.9718C8.41714 11.7764 8.68209 11.6667 8.95836 11.6667H11.0417C11.318 11.6667 11.5829 11.7764 11.7783 11.9718C11.9736 12.1671 12.0834 12.4321 12.0834 12.7083V16.2971C12.0834 17.1917 12.7967 17.9167 13.6771 17.9167H15.4896C16.37 17.9167 17.0834 17.1917 17.0834 16.2971V8.17834C17.0838 7.9368 17.0305 7.69818 16.9274 7.47975C16.8243 7.26133 16.6739 7.06857 16.4871 6.91542L10.9975 2.43959Z" fill="white"/>
</svg>
