<svg width="18" height="18" viewBox="0 0 18 18" fill="none" xmlns="http://www.w3.org/2000/svg">
<g clip-path="url(#clip0_211_1664)">
<path d="M7.80023 0C6.54294 0.000159984 5.30433 0.304249 4.18991 0.886359C3.0755 1.46847 2.11831 2.31135 1.39991 3.34318C0.681516 4.37501 0.223195 5.56521 0.0639999 6.81238C-0.095195 8.05955 0.0494548 9.32672 0.485625 10.5059C0.921795 11.6851 1.63656 12.7414 2.56902 13.5848C3.50147 14.4282 4.62399 15.0337 5.84092 15.3496C7.05786 15.6656 8.33314 15.6828 9.55812 15.3996C10.7831 15.1164 11.9215 14.5412 12.8762 13.7232L16.9754 17.8248L17.825 16.9752L13.7234 12.8748C14.6939 11.7421 15.3192 10.3549 15.5253 8.87764C15.7313 7.40038 15.5095 5.89501 14.8861 4.53998C14.2627 3.18494 13.2639 2.03705 12.008 1.23239C10.7521 0.427731 9.29179 3.40061e-05 7.80023 0Z" fill="white"/>
</g>
<defs>
<clipPath id="clip0_211_1664">
<rect width="18" height="18" fill="white"/>
</clipPath>
</defs>
</svg>
