<svg width="20" height="20" viewBox="0 0 20 20" fill="none" xmlns="http://www.w3.org/2000/svg">
<path d="M5.00016 18.3333C4.54183 18.3333 4.14961 18.1703 3.8235 17.8442C3.49738 17.5181 3.33405 17.1256 3.3335 16.6667V3.33334C3.3335 2.875 3.49683 2.48278 3.8235 2.15667C4.15016 1.83056 4.54238 1.66723 5.00016 1.66667H15.0002C15.4585 1.66667 15.851 1.83001 16.1777 2.15667C16.5043 2.48334 16.6674 2.87556 16.6668 3.33334V16.6667C16.6668 17.125 16.5038 17.5175 16.1777 17.8442C15.8516 18.1708 15.4591 18.3339 15.0002 18.3333H5.00016ZM9.16683 9.16667L11.2502 7.91667L13.3335 9.16667V3.33334H9.16683V9.16667Z" fill="white"/>
</svg>
