<svg width="40" height="40" viewBox="0 0 40 40" fill="none" xmlns="http://www.w3.org/2000/svg">
<path d="M11.6782 20C11.6782 19.6685 11.8099 19.3505 12.0443 19.1161C12.2788 18.8817 12.5967 18.75 12.9282 18.75H18.7499V12.9283C18.7499 12.5968 18.8816 12.2789 19.116 12.0445C19.3504 11.81 19.6684 11.6783 19.9999 11.6783C20.3314 11.6783 20.6494 11.81 20.8838 12.0445C21.1182 12.2789 21.2499 12.5968 21.2499 12.9283V18.75H27.0716C27.4031 18.75 27.721 18.8817 27.9554 19.1161C28.1899 19.3505 28.3216 19.6685 28.3216 20C28.3216 20.3315 28.1899 20.6495 27.9554 20.8839C27.721 21.1183 27.4031 21.25 27.0716 21.25H21.2499V27.0717C21.2499 27.4032 21.1182 27.7211 20.8838 27.9556C20.6494 28.19 20.3314 28.3217 19.9999 28.3217C19.6684 28.3217 19.3504 28.19 19.116 27.9556C18.8816 27.7211 18.7499 27.4032 18.7499 27.0717V21.25H12.9282C12.5967 21.25 12.2788 21.1183 12.0443 20.8839C11.8099 20.6495 11.6782 20.3315 11.6782 20Z" fill="#3E3C3C"/>
<path fill-rule="evenodd" clip-rule="evenodd" d="M12.1951 6.28167C17.3825 5.7066 22.6176 5.7066 27.8051 6.28167C30.8501 6.62167 33.3084 9.02001 33.6651 12.0817C34.2817 17.3433 34.2817 22.6583 33.6651 27.92C33.3067 30.9817 30.8484 33.3783 27.8051 33.72C22.6176 34.2951 17.3825 34.2951 12.1951 33.72C9.15006 33.3783 6.69173 30.9817 6.33506 27.92C5.71969 22.6585 5.71969 17.3432 6.33506 12.0817C6.69173 9.02001 9.15173 6.62167 12.1951 6.28167ZM27.5284 8.76501C22.5248 8.2104 17.4753 8.2104 12.4717 8.76501C11.5455 8.86777 10.6809 9.2798 10.0177 9.93454C9.35449 10.5893 8.93138 11.4485 8.81673 12.3733C8.22398 17.4416 8.22398 22.5617 8.81673 27.63C8.93173 28.5546 9.35499 29.4134 10.0182 30.0678C10.6813 30.7222 11.5457 31.134 12.4717 31.2367C17.4334 31.79 22.5667 31.79 27.5284 31.2367C28.4541 31.1336 29.3181 30.7217 29.9809 30.0673C30.6438 29.413 31.0668 28.5543 31.1817 27.63C31.7745 22.5617 31.7745 17.4416 31.1817 12.3733C31.0665 11.4493 30.6433 10.5911 29.9805 9.93705C29.3177 9.28301 28.4539 8.8713 27.5284 8.76834" fill="#3E3C3C"/>
</svg>
