<svg width="25" height="22" viewBox="0 0 25 22" fill="none" xmlns="http://www.w3.org/2000/svg">
<g clip-path="url(#clip0_243_886)">
<path d="M21.2187 15.9493L19.1406 12.9518V8.70308C19.2145 7.57338 18.9235 6.44835 18.3014 5.45804C17.6793 4.46772 16.7514 3.65258 15.6249 3.10683C15.6403 2.93293 15.6403 2.75823 15.6249 2.58433C15.6128 2.23398 15.5223 1.88916 15.3587 1.56959C15.1951 1.25003 14.9615 0.961974 14.6712 0.721902C14.381 0.48183 14.0399 0.294447 13.6673 0.170464C13.2947 0.0464802 12.8981 -0.011672 12.4999 -0.000668969C12.1018 -0.011672 11.7051 0.0464802 11.3326 0.170464C10.96 0.294447 10.6189 0.48183 10.3287 0.721902C10.0384 0.961974 9.80482 1.25003 9.64118 1.56959C9.47753 1.88916 9.38706 2.23398 9.37494 2.58433C9.35193 2.75791 9.35193 2.93325 9.37494 3.10683C8.2485 3.65258 7.32059 4.46772 6.69846 5.45804C6.07634 6.44835 5.78541 7.57338 5.85932 8.70308V12.9518L3.78119 15.9493C3.60143 16.2092 3.50326 16.5063 3.49669 16.8105C3.49012 17.1146 3.5754 17.4148 3.74382 17.6805C3.91224 17.9461 4.15776 18.1677 4.4553 18.3225C4.75285 18.4774 5.09177 18.56 5.43744 18.5618H8.20307C8.27535 19.5125 8.76326 20.4016 9.56441 21.0425C10.3656 21.6834 11.4177 22.0263 12.4999 21.9993C13.5822 22.0263 14.6343 21.6834 15.4355 21.0425C16.2366 20.4016 16.7245 19.5125 16.7968 18.5618H19.5624C19.9081 18.56 20.247 18.4774 20.5446 18.3225C20.8421 18.1677 21.0876 17.9461 21.2561 17.6805C21.4245 17.4148 21.5098 17.1146 21.5032 16.8105C21.4966 16.5063 21.3984 16.2092 21.2187 15.9493ZM11.3281 2.58433C11.3558 2.33375 11.4941 2.10273 11.7132 1.94079C11.9322 1.77886 12.2147 1.69891 12.4999 1.71808C12.7852 1.69891 13.0677 1.77886 13.2867 1.94079C13.5058 2.10273 13.644 2.33375 13.6718 2.58433C13.2816 2.56282 12.8902 2.56282 12.4999 2.58433C12.1097 2.56246 11.7183 2.56246 11.3281 2.58433ZM12.4999 20.2806C11.9354 20.3056 11.3808 20.1426 10.9465 19.8242C10.5122 19.5057 10.2301 19.055 10.1562 18.5618H14.8437C14.7698 19.055 14.4877 19.5057 14.0534 19.8242C13.6191 20.1426 13.0645 20.3056 12.4999 20.2806ZM5.43744 16.8431L7.53119 13.8593L7.81244 13.4331V8.70308C7.80869 7.67334 8.13351 6.66336 8.74994 5.78808C9.17528 5.2751 9.74405 4.86754 10.4011 4.60495C11.0581 4.34236 11.7811 4.23364 12.4999 4.28933C13.2188 4.23364 13.9418 4.34236 14.5988 4.60495C15.2558 4.86754 15.8246 5.2751 16.2499 5.78808C16.8664 6.66336 17.1912 7.67334 17.1874 8.70308V13.4331L17.4687 13.8593L19.5624 16.8431H5.43744Z" fill="#3E3C3C"/>
</g>
<defs>
<clipPath id="clip0_243_886">
<rect width="25" height="22" fill="white"/>
</clipPath>
</defs>
</svg>
