<svg width="25" height="25" viewBox="0 0 25 25" fill="none" xmlns="http://www.w3.org/2000/svg">
<path d="M11.4896 2.69792C11.7719 2.4586 12.1299 2.32725 12.5 2.32725C12.8701 2.32725 13.2281 2.4586 13.5104 2.69792L21.3229 9.32604C21.4959 9.4727 21.6349 9.65527 21.7302 9.86105C21.8256 10.0668 21.875 10.2909 21.875 10.5177V20.3125C21.875 20.7269 21.7104 21.1243 21.4174 21.4174C21.1243 21.7104 20.7269 21.875 20.3125 21.875H14.3229C14.1157 21.875 13.917 21.7927 13.7705 21.6462C13.624 21.4997 13.5417 21.3009 13.5417 21.0937V14.5833H11.4583V21.0937C11.4583 21.3009 11.376 21.4997 11.2295 21.6462C11.083 21.7927 10.8843 21.875 10.6771 21.875H4.6875C4.2731 21.875 3.87567 21.7104 3.58265 21.4174C3.28962 21.1243 3.125 20.7269 3.125 20.3125V10.5177C3.125 10.0594 3.32708 9.62292 3.67708 9.32604L11.4896 2.69792ZM12.5 3.88958L4.6875 10.5177V20.3125H9.89583V13.8021C9.89583 13.5949 9.97814 13.3962 10.1247 13.2497C10.2712 13.1031 10.4699 13.0208 10.6771 13.0208H14.3229C14.5301 13.0208 14.7288 13.1031 14.8753 13.2497C15.0219 13.3962 15.1042 13.5949 15.1042 13.8021V20.3125H20.3125V10.5177L12.5 3.88958Z" fill="#29B612"/>
</svg>
