<svg width="25" height="25" viewBox="0 0 25 25" fill="none" xmlns="http://www.w3.org/2000/svg">
<g clip-path="url(#clip0_124_419)">
<path d="M24.1666 24.1667L17.4999 17.5M10.8333 20.8333C9.52003 20.8333 8.21967 20.5747 7.00642 20.0721C5.79316 19.5696 4.69077 18.833 3.76218 17.9044C2.8336 16.9758 2.097 15.8734 1.59446 14.6602C1.09191 13.4469 0.833252 12.1466 0.833252 10.8333C0.833252 9.52011 1.09191 8.21975 1.59446 7.0065C2.097 5.79324 2.8336 4.69085 3.76218 3.76226C4.69077 2.83368 5.79316 2.09708 7.00642 1.59454C8.21967 1.09199 9.52003 0.833332 10.8333 0.833332C13.4854 0.833332 16.029 1.8869 17.9043 3.76226C19.7797 5.63763 20.8333 8.18117 20.8333 10.8333C20.8333 13.4855 19.7797 16.029 17.9043 17.9044C16.029 19.7798 13.4854 20.8333 10.8333 20.8333Z" stroke="#29B612" stroke-width="2"/>
</g>
<defs>
<clipPath id="clip0_124_419">
<rect width="25" height="25" fill="white"/>
</clipPath>
</defs>
</svg>
