<svg width="25" height="25" viewBox="0 0 25 25" fill="none" xmlns="http://www.w3.org/2000/svg">
<path d="M13.0208 5.20833C14.9854 5.20833 15.9667 5.20833 16.5771 5.81875C17.1875 6.42917 17.1875 7.41042 17.1875 9.375V15.625C17.1875 17.5896 17.1875 18.5708 16.5771 19.1812C15.9667 19.7917 14.9854 19.7917 13.0208 19.7917H11.9792C10.0146 19.7917 9.03333 19.7917 8.42292 19.1812C7.8125 18.5708 7.8125 17.5896 7.8125 15.625V9.375C7.8125 7.41042 7.8125 6.42917 8.42292 5.81875C9.03333 5.20833 10.0146 5.20833 11.9792 5.20833H13.0208Z" stroke="#29B612" stroke-width="1.5"/>
<path d="M22.9166 19.7917H22.3958C21.7051 19.7917 21.0427 19.5173 20.5543 19.0289C20.066 18.5405 19.7916 17.8782 19.7916 17.1875V7.8125C19.7916 7.12183 20.066 6.45945 20.5543 5.97107C21.0427 5.4827 21.7051 5.20833 22.3958 5.20833H22.9166M2.08325 19.7917H2.60409C3.29475 19.7917 3.95713 19.5173 4.44551 19.0289C4.93389 18.5405 5.20825 17.8782 5.20825 17.1875V7.8125C5.20825 7.12183 4.93389 6.45945 4.44551 5.97107C3.95713 5.4827 3.29475 5.20833 2.60409 5.20833H2.08325" stroke="#29B612" stroke-width="1.5" stroke-linecap="round"/>
</svg>
