<svg width="20" height="20" viewBox="0 0 20 20" fill="none" xmlns="http://www.w3.org/2000/svg">
<path d="M7.29374 13.425L5.89374 12.025C5.70518 11.8388 5.46661 11.7113 5.207 11.658C4.94738 11.6048 4.67789 11.628 4.43124 11.725L2.72499 12.4062C2.47574 12.5074 2.26201 12.6801 2.11075 12.9026C1.95948 13.125 1.87745 13.3873 1.87499 13.6562V16.7812C1.87644 16.9642 1.91491 17.145 1.98808 17.3128C2.06124 17.4805 2.16759 17.6317 2.30073 17.7572C2.43386 17.8828 2.59103 17.9801 2.76276 18.0433C2.93449 18.1065 3.11724 18.1343 3.29999 18.125C15.2562 17.3812 17.6687 7.25624 18.125 3.38124C18.1462 3.19096 18.1268 2.99834 18.0682 2.81606C18.0096 2.63379 17.9131 2.46599 17.785 2.32371C17.6568 2.18142 17.5 2.06787 17.3249 1.99053C17.1497 1.9132 16.9602 1.87382 16.7687 1.875H13.75C13.4806 1.87579 13.2176 1.95716 12.9949 2.10864C12.7721 2.26011 12.5998 2.47477 12.5 2.725L11.8187 4.43125C11.7186 4.67691 11.693 4.94665 11.7453 5.20675C11.7975 5.46686 11.9252 5.7058 12.1125 5.89375L13.5125 7.29375C13.5125 7.29375 12.7062 12.75 7.29374 13.425Z" fill="#29B612"/>
</svg>
