<svg width="20" height="20" viewBox="0 0 20 20" fill="none" xmlns="http://www.w3.org/2000/svg">
<path d="M13.7966 10.755L13.4174 11.1325C13.4174 11.1325 12.5149 12.0292 10.0524 9.58083C7.5899 7.1325 8.4924 6.23583 8.4924 6.23583L8.73073 5.9975C9.3199 5.4125 9.37573 4.4725 8.86157 3.78583L7.81157 2.38333C7.1749 1.53333 5.94573 1.42083 5.21657 2.14583L3.90823 3.44583C3.5474 3.80583 3.30573 4.27083 3.3349 4.7875C3.4099 6.11 4.00823 8.95417 7.3449 12.2725C10.8841 15.7908 14.2049 15.9308 15.5624 15.8042C15.9924 15.7642 16.3657 15.5458 16.6666 15.2458L17.8499 14.0692C18.6499 13.275 18.4249 11.9125 17.4016 11.3567L15.8099 10.4908C15.1382 10.1267 14.3216 10.2333 13.7966 10.755Z" fill="#403939"/>
</svg>
