<svg width="20" height="20" viewBox="0 0 20 20" fill="none" xmlns="http://www.w3.org/2000/svg">
<path d="M4.99992 18.3333C4.54159 18.3333 4.14936 18.1703 3.82325 17.8442C3.49714 17.5181 3.33381 17.1256 3.33325 16.6667V3.33334C3.33325 2.875 3.49659 2.48278 3.82325 2.15667C4.14992 1.83056 4.54214 1.66723 4.99992 1.66667H14.9999C15.4583 1.66667 15.8508 1.83001 16.1774 2.15667C16.5041 2.48334 16.6671 2.87556 16.6666 3.33334V16.6667C16.6666 17.125 16.5035 17.5175 16.1774 17.8442C15.8513 18.1708 15.4588 18.3339 14.9999 18.3333H4.99992ZM9.16658 9.16667L11.2499 7.91667L13.3333 9.16667V3.33334H9.16658V9.16667Z" fill="#29B612"/>
</svg>
