<svg width="15" height="19" viewBox="0 0 15 19" fill="none" xmlns="http://www.w3.org/2000/svg">
<path d="M12.0617 18.4194C11.3978 18.4194 10.8335 18.1634 10.3688 17.6516C9.90405 17.1398 9.67169 16.5183 9.67169 15.7871C9.67169 15.6847 9.67833 15.5786 9.6916 15.4686C9.70488 15.3586 9.7248 15.2601 9.75135 15.1729L4.13493 11.5755C3.90921 11.7948 3.65693 11.9668 3.37811 12.0914C3.09928 12.216 2.80717 12.278 2.50178 12.2774C1.8379 12.2774 1.27361 12.0215 0.80889 11.5097C0.344174 10.9979 0.111816 10.3763 0.111816 9.64517C0.111816 8.91398 0.344174 8.29248 0.80889 7.78065C1.27361 7.26882 1.8379 7.01291 2.50178 7.01291C2.80717 7.01291 3.09928 7.0752 3.37811 7.1998C3.65693 7.32439 3.90921 7.49607 4.13493 7.71484L9.75135 4.11742C9.7248 4.02968 9.70488 3.93112 9.6916 3.82173C9.67833 3.71235 9.67169 3.60618 9.67169 3.50323C9.67169 2.77205 9.90405 2.15054 10.3688 1.63871C10.8335 1.12689 11.3978 0.870972 12.0617 0.870972C12.7255 0.870972 13.2898 1.12689 13.7545 1.63871C14.2193 2.15054 14.4516 2.77205 14.4516 3.50323C14.4516 4.23441 14.2193 4.85592 13.7545 5.36775C13.2898 5.87957 12.7255 6.13549 12.0617 6.13549C11.7563 6.13549 11.4642 6.07348 11.1853 5.94948C10.9065 5.82547 10.6542 5.65349 10.4285 5.43355L4.81209 9.03097C4.83864 9.11871 4.85856 9.21757 4.87184 9.32754C4.88511 9.43751 4.89175 9.54338 4.89175 9.64517C4.89175 9.74695 4.88511 9.85311 4.87184 9.96367C4.85856 10.0742 4.83864 10.1728 4.81209 10.2594L10.4285 13.8568C10.6542 13.6374 10.9065 13.4657 11.1853 13.3417C11.4642 13.2177 11.7563 13.1554 12.0617 13.1548C12.7255 13.1548 13.2898 13.4108 13.7545 13.9226C14.2193 14.4344 14.4516 15.0559 14.4516 15.7871C14.4516 16.5183 14.2193 17.1398 13.7545 17.6516C13.2898 18.1634 12.7255 18.4194 12.0617 18.4194Z" fill="#088FF0"/>
</svg>
