<svg width="18" height="18" viewBox="0 0 18 18" fill="none" xmlns="http://www.w3.org/2000/svg">
<path d="M14.6597 13.4655C14.8182 13.6241 14.9072 13.839 14.9072 14.0632C14.9072 14.2874 14.8182 14.5024 14.6597 14.6609C14.5012 14.8194 14.2862 14.9084 14.062 14.9084C13.8378 14.9084 13.6229 14.8194 13.4644 14.6609L9.00021 10.1953L4.53467 14.6595C4.37616 14.818 4.16118 14.907 3.93701 14.907C3.71285 14.907 3.49786 14.818 3.33935 14.6595C3.18085 14.5009 3.0918 14.286 3.0918 14.0618C3.0918 13.8376 3.18085 13.6227 3.33935 13.4641L7.8049 9L3.34076 4.53445C3.18225 4.37595 3.0932 4.16096 3.0932 3.9368C3.0932 3.71263 3.18225 3.49765 3.34076 3.33914C3.49927 3.18063 3.71425 3.09158 3.93842 3.09158C4.16258 3.09158 4.37756 3.18063 4.53607 3.33914L9.00021 7.80469L13.4658 3.33844C13.6243 3.17993 13.8393 3.09088 14.0634 3.09088C14.2876 3.09088 14.5026 3.17993 14.6611 3.33844C14.8196 3.49695 14.9086 3.71193 14.9086 3.93609C14.9086 4.16026 14.8196 4.37524 14.6611 4.53375L10.1955 9L14.6597 13.4655Z" fill="white"/>
</svg>
