<svg width="14" height="14" viewBox="0 0 14 14" fill="none" xmlns="http://www.w3.org/2000/svg">
<rect width="14" height="14" rx="7" fill="white"/>
<path d="M11.402 10.4732C11.5253 10.5965 11.5946 10.7637 11.5946 10.9381C11.5946 11.1124 11.5253 11.2796 11.402 11.4029C11.2787 11.5262 11.1115 11.5954 10.9372 11.5954C10.7628 11.5954 10.5956 11.5262 10.4723 11.4029L7.00022 7.92969L3.52702 11.4018C3.40373 11.5251 3.23652 11.5943 3.06217 11.5943C2.88782 11.5943 2.72061 11.5251 2.59733 11.4018C2.47405 11.2785 2.40479 11.1113 2.40479 10.937C2.40479 10.7626 2.47405 10.5954 2.59733 10.4721L6.07053 7L2.59842 3.5268C2.47514 3.40352 2.40588 3.23631 2.40588 3.06196C2.40588 2.88761 2.47514 2.7204 2.59842 2.59711C2.72171 2.47383 2.88892 2.40457 3.06327 2.40457C3.23762 2.40457 3.40483 2.47383 3.52811 2.59711L7.00022 6.07032L10.4734 2.59657C10.5967 2.47328 10.7639 2.40402 10.9383 2.40402C11.1126 2.40402 11.2798 2.47328 11.4031 2.59657C11.5264 2.71985 11.5957 2.88706 11.5957 3.06141C11.5957 3.23576 11.5264 3.40297 11.4031 3.52625L7.92991 7L11.402 10.4732Z" fill="#403939"/>
</svg>
